<svg width="36" height="36" viewBox="0 0 36 36" fill="none" xmlns="http://www.w3.org/2000/svg">
<g id="info_24px 2">
<g id="Vector">
<path d="M16.5 10.5H19.5V13.5H16.5V10.5Z" fill="#333333"/>
<path d="M16.5 16.5H19.5V25.5H16.5V16.5Z" fill="#333333"/>
<path fill-rule="evenodd" clip-rule="evenodd" d="M3 18C3 9.72001 9.71997 3 18 3C26.28 3 33 9.72001 33 18C33 26.28 26.28 33 18 33C9.71997 33 3 26.28 3 18ZM6 18C6 24.615 11.3849 30 18 30C24.6151 30 30 24.615 30 18C30 11.385 24.6151 6 18 6C11.3849 6 6 11.385 6 18Z" fill="#333333"/>
</g>
</g>
</svg>
