<?xml version="1.0" encoding="UTF-8" standalone="no"?>
<svg
   xmlns:dc="http://purl.org/dc/elements/1.1/"
   xmlns:cc="http://creativecommons.org/ns#"
   xmlns:rdf="http://www.w3.org/1999/02/22-rdf-syntax-ns#"
   xmlns:svg="http://www.w3.org/2000/svg"
   xmlns="http://www.w3.org/2000/svg"
   xmlns:sodipodi="http://sodipodi.sourceforge.net/DTD/sodipodi-0.dtd"
   xmlns:inkscape="http://www.inkscape.org/namespaces/inkscape"
   width="24"
   height="24"
   viewBox="0 0 24 24"
   fill="none"
   version="1.1"
   id="svg4"
   sodipodi:docname="loop.svg"
   inkscape:version="0.92.4 (5da689c313, 2019-01-14)">
  <metadata
     id="metadata10">
    <rdf:RDF>
      <cc:Work
         rdf:about="">
        <dc:format>image/svg+xml</dc:format>
        <dc:type
           rdf:resource="http://purl.org/dc/dcmitype/StillImage" />
      </cc:Work>
    </rdf:RDF>
  </metadata>
  <defs
     id="defs8" />
  <sodipodi:namedview
     pagecolor="#ffffff"
     bordercolor="#666666"
     borderopacity="1"
     objecttolerance="10"
     gridtolerance="10"
     guidetolerance="10"
     inkscape:pageopacity="0"
     inkscape:pageshadow="2"
     inkscape:window-width="640"
     inkscape:window-height="480"
     id="namedview6"
     showgrid="false"
     inkscape:zoom="9.8333333"
     inkscape:cx="12"
     inkscape:cy="12"
     inkscape:window-x="0"
     inkscape:window-y="360"
     inkscape:window-maximized="0"
     inkscape:current-layer="svg4" />
  <g
     id="loop_24px"
     transform="matrix(1,0,0,-1,0,24)">
    <path
       id="icon/av/loop_24px"
       d="m 12,1 v 3 c 4.42,0 8,3.58 8,8 0,1.57 -0.46,3.03 -1.24,4.26 L 17.3,14.8 C 17.75,13.97 18,13.01 18,12 18,8.69 15.31,6 12,6 V 9 L 8,5 Z M 6,12 c 0,3.31 2.69,6 6,6 v -3 l 4,4 -4,4 V 20 C 7.58,20 4,16.42 4,12 4,10.43 4.46,8.97 5.24,7.74 L 6.7,9.2 C 6.25,10.03 6,10.99 6,12 Z"
       inkscape:connector-curvature="0"
       style="clip-rule:evenodd;fill:#333333;fill-rule:evenodd" />
  </g>
</svg>
