<svg width="36" height="36" fill="none" xmlns="http://www.w3.org/2000/svg"><path fill-rule="evenodd" clip-rule="evenodd" d="M29.253 18c0 .51-.045.99-.105 1.47l3.165 2.475c.285.225.36.63.18.96l-3 5.19a.743.743 0 01-.645.375.85.85 0 01-.27-.045l-3.735-1.5c-.78.585-1.62 1.095-2.535 1.47l-.57 3.975a.731.731 0 01-.735.63h-6a.731.731 0 01-.735-.63l-.57-3.975a10.96 10.96 0 01-2.535-1.47l-3.735 1.5a.7.7 0 01-.255.045.75.75 0 01-.66-.375l-3-5.19a.757.757 0 01.18-.96l3.165-2.475c-.06-.48-.105-.975-.105-1.47s.045-.99.105-1.47l-3.165-2.475a.74.74 0 01-.18-.96l3-5.19a.743.743 0 01.645-.375c.09 0 .18.015.27.045l3.735 1.5c.78-.585 1.62-1.095 2.535-1.47l.57-3.975c.045-.36.36-.63.735-.63h6c.375 0 .69.27.735.63l.57 3.975c.915.375 1.755.87 2.535 1.47l3.735-1.5a.7.7 0 01.255-.045.75.75 0 01.66.375l3 5.19c.18.33.105.735-.18.96l-3.165 2.475c.06.48.105.96.105 1.47zm-3 0c0-.315-.015-.63-.075-1.095l-.21-1.695 1.335-1.05 1.605-1.275-1.05-1.815-1.905.765-1.59.645-1.365-1.05a8.51 8.51 0 00-1.845-1.065l-1.59-.645-.24-1.695L19.038 6h-2.085l-.3 2.025-.24 1.695-1.59.645c-.615.255-1.23.615-1.875 1.095l-1.35 1.02-1.56-.63-1.905-.765-1.05 1.815 1.62 1.26 1.335 1.05-.21 1.695c-.045.45-.075.795-.075 1.095 0 .3.03.645.075 1.11l.21 1.695-1.335 1.05-1.62 1.26 1.05 1.815 1.905-.765 1.59-.645 1.365 1.05c.6.45 1.2.795 1.845 1.065l1.59.645.24 1.695.285 2.025h2.1l.3-2.025.24-1.695 1.59-.645c.615-.255 1.23-.615 1.875-1.095l1.35-1.02 1.56.63 1.905.765 1.05-1.815-1.62-1.26-1.335-1.05.21-1.695c.045-.45.075-.78.075-1.095zm-8.25-6c-3.315 0-6 2.685-6 6s2.685 6 6 6 6-2.685 6-6-2.685-6-6-6zm-3 6c0 1.65 1.35 3 3 3s3-1.35 3-3-1.35-3-3-3-3 1.35-3 3z" fill="#333"/></svg>