<?xml version="1.0" encoding="UTF-8" standalone="no"?>
<svg
   xmlns:dc="http://purl.org/dc/elements/1.1/"
   xmlns:cc="http://creativecommons.org/ns#"
   xmlns:rdf="http://www.w3.org/1999/02/22-rdf-syntax-ns#"
   xmlns:svg="http://www.w3.org/2000/svg"
   xmlns="http://www.w3.org/2000/svg"
   height="100"
   width="100"
   id="svg10"
   viewBox="0 0 100 100"
   y="0px"
   x="0px"
   version="1.1">
  <metadata
     id="metadata16">
    <rdf:RDF>
      <cc:Work
         rdf:about="">
        <dc:format>image/svg+xml</dc:format>
        <dc:type
           rdf:resource="http://purl.org/dc/dcmitype/StillImage" />
        <dc:title></dc:title>
      </cc:Work>
    </rdf:RDF>
  </metadata>
  <defs
     id="defs14" />
  <g
     id="g4"
     transform="translate(0.79449153,-952.99777)">
    <path
       id="path2"
       transform="translate(0,952.36218)"
       d="M 49.78125,10.96875 A 2.0002,2.0002 0 0 0 48,13 v 14.71875 a 2.0002,2.0002 0 1 0 4,0 V 13 a 2.0002,2.0002 0 0 0 -2.21875,-2.03125 z m -12.125,7.34375 a 2.0002,2.0002 0 0 0 -1.9375,2.59375 L 38.1875,29.5 a 2.0002,2.0002 0 1 0 3.84375,-1.09375 L 39.5625,19.8125 a 2.0002,2.0002 0 0 0 -1.90625,-1.5 z m 24.625,0 a 2.0002,2.0002 0 0 0 -1.84375,1.5 l -2.46875,8.59375 A 2.0002,2.0002 0 1 0 61.8125,29.5 l 2.46875,-8.59375 a 2.0002,2.0002 0 0 0 -2,-2.59375 z M 22.5,18.34375 A 2.0002,2.0002 0 0 0 21.125,21.375 l 7.40625,12.28125 a 2.0002,2.0002 0 1 0 3.40625,-2.0625 L 24.53125,19.3125 A 2.0002,2.0002 0 0 0 22.5,18.34375 Z m 54.34375,0 a 2.0002,2.0002 0 0 0 -1.375,0.96875 L 68.0625,31.59375 a 2.0002,2.0002 0 1 0 3.40625,2.0625 L 78.875,21.375 A 2.0002,2.0002 0 0 0 76.84375,18.34375 Z M 15.375,30.59375 A 2.0002,2.0002 0 0 0 14,34.03125 l 6.1875,6.15625 A 2.0002,2.0002 0 1 0 23,37.34375 l -6.1875,-6.125 a 2.0002,2.0002 0 0 0 -1.4375,-0.625 z m 69.1875,0 a 2.0002,2.0002 0 0 0 -1.375,0.625 L 77,37.34375 a 2.0002,2.0002 0 1 0 2.8125,2.84375 L 86,34.03125 a 2.0002,2.0002 0 0 0 -1.4375,-3.4375 z M 50,33.09375 c -16.17939,0 -29.766354,11.21161 -33.25,26.28125 a 2.0049986,2.0049986 0 0 0 3.90625,0.90625 C 23.724354,47.00922 35.668032,37.09375 50,37.09375 65.98559,37.09375 79.026687,49.403101 80.0625,65 H 8 A 2.0002,2.0002 0 0 0 7.8125,65 2.0021961,2.0021961 0 1 0 8,69 h 84 a 2.0002,2.0002 0 1 0 0,-4 H 84.0625 C 83.026604,47.20636 68.142839,33.09375 50,33.09375 Z M 23.1875,75 a 2.0021961,2.0021961 0 1 0 0.1875,4 h 53.25 a 2.0002,2.0002 0 1 0 0,-4 h -53.25 a 2.0002,2.0002 0 0 0 -0.1875,0 z m 13.28125,10 a 2.0029885,2.0029885 0 1 0 0.21875,4 h 26.625 a 2.0002,2.0002 0 1 0 0,-4 h -26.625 a 2.0002,2.0002 0 0 0 -0.21875,0 z"
       style="color:#000000;font-style:normal;font-variant:normal;font-weight:normal;font-stretch:normal;font-size:medium;line-height:normal;font-family:Sans;-inkscape-font-specification:Sans;text-indent:0;text-align:start;text-decoration:none;text-decoration-line:none;letter-spacing:normal;word-spacing:normal;text-transform:none;writing-mode:lr-tb;direction:ltr;baseline-shift:baseline;text-anchor:start;display:inline;overflow:visible;visibility:visible;opacity:1;fill:#000000;fill-opacity:1;stroke:none;stroke-width:4;marker:none;enable-background:accumulate" />
  </g>
</svg>
