<svg viewBox="0 0 24 24" fill="none" xmlns="http://www.w3.org/2000/svg">
<path fill-rule="evenodd" clip-rule="evenodd" d="m 12.41,2.58 9,9 C 21.77,11.94 22,12.45 22,13 c 0,0.55 -0.22,1.05 -0.59,1.41 l -7,7 C 14.05,21.78 13.55,22 13,22 12.45,22 11.95,21.78 11.59,21.42 l -9,-9 C 2.22,12.05 2,11.55 2,11 V 4 C 2,2.9 2.9,2 4,2 h 7 c 0.55,0 1.05,0.22 1.41,0.58 z M 4,11 l 9,9.01 7,-7.02 -9,-9 V 4 H 4 Z M 6.5,5 C 5.67157,5 5,5.67157 5,6.5 5,7.32843 5.67157,8 6.5,8 7.32843,8 8,7.32843 8,6.5 8,5.67157 7.32843,5 6.5,5 Z" fill="#333333"/>
</svg>
