<?xml version="1.0" standalone="no"?>
<!DOCTYPE svg PUBLIC "-//W3C//DTD SVG 20010904//EN"
 "http://www.w3.org/TR/2001/REC-SVG-20010904/DTD/svg10.dtd">
<svg version="1.0" xmlns="http://www.w3.org/2000/svg"
 width="1920.000000pt" height="1920.000000pt" viewBox="0 0 1920.000000 1920.000000"
 preserveAspectRatio="xMidYMid meet">
<metadata>
Created by potrace 1.11, written by Peter Selinger 2001-2013
</metadata>
<g transform="translate(0.000000,1920.000000) scale(0.100000,-0.100000)"
fill="#000000" stroke="none">
<path d="M2899 12716 c-2 -2 -40 -6 -84 -10 -101 -7 -197 -19 -215 -26 -3 -1
-8 -2 -13 -1 -4 1 -26 -3 -50 -8 -23 -6 -55 -12 -72 -15 -47 -9 -123 -26 -170
-40 -5 -1 -26 -6 -45 -10 -19 -5 -39 -11 -45 -14 -5 -4 -18 -8 -27 -9 -9 -2
-36 -10 -60 -18 -24 -9 -50 -18 -58 -20 -8 -2 -32 -11 -52 -19 -21 -9 -38 -14
-38 -12 0 2 -27 -9 -60 -25 -33 -16 -63 -29 -66 -29 -11 0 -183 -87 -279 -141
-155 -87 -373 -237 -436 -298 -9 -9 -31 -27 -50 -41 -44 -32 -305 -293 -344
-344 -16 -21 -35 -44 -40 -50 -6 -6 -26 -31 -45 -56 -19 -25 -38 -49 -43 -55
-116 -147 -280 -434 -366 -644 -73 -177 -146 -405 -167 -521 -8 -45 -17 -89
-28 -138 -2 -11 -7 -43 -11 -72 -4 -29 -8 -61 -10 -72 -13 -65 -20 -212 -20
-403 0 -199 5 -279 20 -385 3 -19 7 -53 10 -75 2 -22 7 -51 10 -65 12 -60 15
-77 20 -107 3 -18 9 -43 15 -57 5 -15 8 -26 5 -26 -2 0 1 -15 6 -32 6 -18 12
-42 14 -53 10 -42 57 -195 75 -240 4 -11 23 -58 41 -105 17 -47 36 -89 41 -95
4 -5 8 -17 8 -27 0 -10 5 -18 10 -18 6 0 10 -5 10 -10 0 -29 139 -284 213
-393 26 -38 47 -72 47 -77 0 -4 3 -10 8 -12 4 -1 25 -28 47 -58 127 -175 454
-516 538 -562 10 -5 26 -17 36 -26 59 -56 264 -193 406 -272 186 -104 503
-237 608 -256 17 -3 35 -10 39 -17 4 -7 8 -9 8 -5 0 4 15 2 33 -3 48 -14 246
-57 292 -64 22 -3 55 -8 73 -11 17 -4 47 -8 65 -9 17 -2 66 -7 107 -11 93 -10
690 -11 785 -2 133 14 180 20 255 34 41 8 89 16 105 18 17 3 40 7 53 10 12 3
30 8 40 10 25 7 165 46 177 50 6 1 24 6 40 10 17 4 39 11 50 16 11 4 49 18 85
30 36 13 81 30 100 38 72 31 266 122 280 132 8 5 25 14 38 20 56 24 325 201
407 267 6 5 32 26 60 48 138 110 368 341 455 457 8 11 27 34 41 52 45 54 187
267 237 356 77 137 252 531 252 568 0 5 9 35 19 68 11 32 23 74 26 93 3 19 9
39 13 45 3 6 7 20 8 31 1 11 10 54 19 95 9 41 18 86 20 100 2 14 4 25 5 25 1
0 3 20 6 44 2 25 6 56 9 70 20 104 28 550 12 676 -4 33 -9 83 -12 110 -3 28
-7 61 -10 75 -3 14 -7 43 -10 65 -3 22 -12 67 -20 100 -9 33 -17 71 -20 85
-15 82 -87 320 -120 395 -7 17 -23 55 -35 85 -30 78 -152 318 -194 385 -20 30
-36 60 -36 65 0 6 -4 10 -10 10 -5 0 -10 4 -10 10 0 15 -145 218 -205 286 -5
7 -23 29 -40 50 -41 52 -256 268 -330 331 -102 87 -183 150 -273 210 -48 32
-89 61 -92 64 -9 10 -214 124 -280 156 -171 82 -238 109 -400 164 -63 22 -116
39 -117 39 -2 0 -8 2 -15 5 -19 6 -189 46 -213 50 -11 2 -48 9 -82 15 -35 6
-73 13 -85 15 -24 4 -94 13 -163 21 -47 6 -731 14 -736 10z"/>
<path d="M7786 12383 c-1 -1 -11 -4 -22 -6 -35 -7 -99 -34 -122 -52 -63 -48
-123 -140 -131 -200 -3 -16 -5 -862 -5 -1880 -1 -1801 0 -1851 19 -1902 26
-72 93 -145 162 -180 32 -15 64 -29 73 -30 19 -4 248 -3 275 0 34 5 128 53
162 84 37 33 83 98 83 118 0 8 4 16 8 19 4 2 9 19 11 38 2 18 4 861 4 1873 1
1757 0 1843 -17 1898 -10 31 -23 57 -27 57 -5 0 -9 5 -9 10 0 35 -132 130
-201 145 -31 7 -257 14 -263 8z"/>
<path d="M10357 11134 c-1 -1 -36 -5 -77 -9 -41 -4 -86 -8 -100 -10 -14 -1
-34 -5 -45 -8 -11 -3 -36 -8 -56 -11 -51 -8 -234 -69 -294 -98 -138 -68 -232
-134 -330 -233 -71 -73 -79 -81 -142 -176 -79 -117 -174 -335 -197 -451 -3
-13 -10 -48 -16 -78 -47 -227 -56 -489 -26 -760 7 -67 27 -164 55 -276 61
-243 222 -509 391 -647 53 -43 180 -129 180 -121 0 4 8 0 18 -9 9 -8 46 -28
82 -45 275 -125 591 -163 965 -118 74 9 229 47 286 69 19 8 43 18 54 22 11 5
22 9 25 9 3 1 11 5 18 9 6 5 12 6 12 2 0 -3 17 5 38 18 20 12 51 29 67 37 17
8 32 17 35 20 3 3 32 23 65 45 87 58 224 201 294 305 81 122 157 285 187 405
3 11 6 25 8 30 39 135 67 369 68 550 0 110 -19 321 -38 417 -3 15 -6 30 -6 33
0 2 -9 37 -19 77 -11 40 -21 78 -23 85 -1 7 -5 16 -9 19 -4 4 -7 16 -7 26 0
10 -4 26 -10 36 -5 9 -28 58 -51 107 -40 86 -118 213 -163 264 -65 75 -219
221 -245 232 -17 8 -31 17 -31 20 0 4 -17 16 -37 27 -21 10 -54 28 -73 38
-119 65 -310 117 -515 140 -42 5 -333 12 -338 8z m316 -566 c164 -45 289 -146
361 -293 70 -140 85 -205 111 -455 6 -57 6 -372 0 -425 -2 -22 -7 -64 -10 -94
-11 -106 -39 -234 -63 -296 -24 -58 -75 -155 -83 -155 -5 0 -9 -5 -9 -11 0
-11 -44 -54 -95 -94 -42 -33 -144 -82 -196 -95 -129 -31 -311 -32 -392 -1 -15
6 -27 8 -27 6 0 -10 -118 48 -168 83 -70 48 -123 110 -162 188 -27 55 -58 142
-66 183 -1 7 -7 34 -13 60 -38 160 -47 627 -16 781 3 14 8 45 11 70 8 55 42
170 56 188 6 6 7 12 3 12 -9 0 58 122 87 156 88 104 194 170 319 198 90 21
267 18 352 -6z"/>
<path d="M13448 11135 c-2 -2 -32 -6 -68 -9 -36 -3 -80 -10 -98 -15 -18 -5
-35 -10 -37 -10 -54 2 -239 -81 -335 -149 -111 -79 -212 -192 -297 -332 -39
-66 -104 -209 -118 -265 -5 -16 -10 -34 -12 -40 -1 -5 -14 -57 -27 -114 -41
-170 -51 -277 -50 -546 0 -188 5 -301 19 -375 2 -14 8 -52 14 -86 5 -33 15
-81 22 -105 7 -24 13 -48 13 -54 1 -5 9 -35 20 -65 49 -149 132 -301 227 -414
27 -33 179 -185 200 -201 107 -78 263 -150 373 -171 12 -2 33 -6 48 -10 15 -3
58 -7 95 -9 37 -2 70 -5 73 -6 3 -1 8 -1 12 0 5 0 50 3 100 6 156 7 283 39
425 107 117 54 196 109 311 216 14 12 29 22 34 22 5 0 8 -10 7 -22 -2 -13 0
-29 4 -35 5 -7 4 -13 -1 -13 -6 0 -7 -14 -2 -35 4 -19 5 -35 1 -35 -3 0 -6
-48 -7 -108 0 -96 -7 -182 -18 -237 -2 -11 -7 -39 -11 -62 -20 -122 -94 -278
-170 -358 -70 -74 -193 -142 -294 -162 -48 -9 -51 -10 -53 -13 -11 -10 -178
-20 -303 -19 -123 1 -157 3 -260 14 -33 4 -72 8 -87 8 -16 1 -28 4 -28 7 0 3
-8 6 -17 6 -17 1 -50 7 -103 20 -137 31 -264 -16 -308 -116 -50 -115 -2 -292
106 -391 71 -65 133 -92 242 -104 25 -3 61 -8 80 -10 120 -18 269 -28 425 -28
126 0 183 3 334 19 103 11 328 66 411 101 256 107 422 240 557 443 36 55 114
207 128 251 4 13 9 29 11 34 16 45 62 240 58 247 -3 4 -2 8 3 8 4 0 9 20 11
44 1 24 5 54 8 67 15 71 18 309 18 1494 l1 1301 -34 68 c-65 133 -150 188
-294 192 -107 3 -173 -14 -238 -62 -45 -33 -99 -94 -99 -111 0 -5 -5 -14 -12
-21 -6 -6 -13 -17 -14 -24 -1 -7 -9 -39 -18 -72 -9 -32 -13 -63 -10 -67 3 -5
1 -9 -4 -9 -4 0 -44 36 -88 79 -111 111 -190 172 -292 224 -86 44 -196 83
-263 91 -19 3 -34 5 -34 6 0 8 -280 22 -287 15z m490 -584 c159 -49 331 -196
401 -343 47 -100 53 -126 56 -245 2 -50 5 -95 8 -100 2 -4 1 -17 -3 -28 -4
-11 -4 -31 0 -45 4 -14 4 -34 0 -45 -4 -11 -4 -27 1 -36 4 -8 4 -21 -1 -28 -4
-8 -4 -26 0 -42 5 -15 6 -29 4 -32 -7 -6 -9 -116 -2 -122 3 -3 2 -24 -2 -45
-4 -22 -4 -43 1 -46 4 -2 5 -15 0 -27 -5 -12 -5 -31 -1 -42 4 -11 5 -24 3 -28
-3 -4 -7 -26 -10 -49 -6 -57 -29 -123 -65 -187 -35 -63 -39 -68 -98 -125 -95
-93 -129 -119 -195 -151 -111 -53 -161 -63 -282 -60 -207 5 -359 97 -470 284
-38 63 -86 197 -98 271 -3 19 -8 42 -10 50 -11 35 -18 166 -19 330 0 228 8
292 58 490 29 114 145 283 231 337 67 42 152 72 225 80 30 3 56 7 58 8 10 9
159 -8 210 -24z"/>
<path d="M17048 11135 c-2 -1 -39 -5 -83 -8 -44 -4 -91 -9 -105 -12 -14 -3
-39 -7 -57 -10 -37 -5 -89 -18 -188 -48 -38 -12 -72 -21 -75 -22 -3 0 -30 -13
-61 -28 -31 -15 -59 -27 -63 -27 -4 0 -19 -8 -34 -18 -15 -11 -47 -32 -72 -47
-88 -56 -182 -141 -257 -231 -48 -58 -147 -214 -136 -214 5 0 3 -4 -3 -8 -16
-11 -51 -92 -88 -205 -32 -93 -38 -116 -51 -185 -2 -13 -7 -31 -9 -40 -6 -17
-15 -77 -22 -147 -19 -177 -19 -418 1 -570 12 -99 15 -118 31 -187 9 -39 18
-77 19 -87 2 -9 4 -16 5 -16 1 0 3 -7 5 -15 18 -81 104 -278 167 -380 24 -39
95 -134 124 -165 63 -68 210 -177 316 -233 48 -25 140 -65 158 -68 3 0 16 -6
30 -12 38 -18 181 -52 285 -68 158 -25 471 -22 588 5 20 5 37 7 37 4 0 -3 6 0
13 6 8 6 16 9 19 6 7 -7 171 40 248 72 112 46 260 134 338 200 79 67 172 165
192 203 7 13 20 32 30 42 9 10 26 36 36 58 10 22 22 40 27 40 4 0 7 9 7 20 0
11 3 20 8 20 6 0 45 83 47 100 0 3 6 14 12 25 10 20 52 149 58 183 2 9 4 18 5
20 4 3 5 11 19 92 7 41 15 83 17 93 18 99 24 457 10 577 -20 169 -29 212 -78
375 -29 98 -105 263 -135 298 -9 9 -12 17 -7 17 5 0 2 6 -6 13 -8 7 -22 24
-30 39 -50 88 -209 244 -330 324 -85 55 -270 143 -282 133 -2 -1 -12 3 -24 9
-11 6 -32 13 -45 16 -13 3 -42 10 -64 16 -39 9 -133 26 -205 36 -36 5 -338 13
-342 9z m343 -578 c141 -48 236 -132 316 -277 43 -78 84 -201 98 -290 2 -14 6
-34 8 -45 12 -55 20 -129 24 -220 2 -55 4 -104 4 -110 2 -29 -11 -246 -16
-280 -14 -100 -23 -145 -39 -208 -39 -146 -97 -257 -177 -338 -33 -32 -64 -59
-69 -59 -5 0 -15 -6 -22 -12 -26 -25 -103 -57 -178 -75 -75 -17 -238 -22 -305
-10 -190 37 -326 124 -407 263 -45 78 -95 228 -103 314 -2 19 -6 45 -9 57 -8
39 -19 226 -19 338 -1 105 16 370 23 370 2 0 7 26 13 72 19 130 110 312 197
390 75 68 197 128 284 140 23 3 43 7 46 10 3 3 61 3 130 1 101 -4 140 -10 201
-31z"/>
</g>
</svg>
