<svg width="37" height="36" fill="none" xmlns="http://www.w3.org/2000/svg"><path fill-rule="evenodd" clip-rule="evenodd" d="M3.083 18C3.083 9.72 9.99 3 18.5 3s15.417 6.72 15.417 15c0 8.28-6.907 15-15.417 15S3.083 26.28 3.083 18zm3.084 0c0 6.615 5.534 12 12.333 12s12.333-5.385 12.333-12S25.3 6 18.5 6 6.167 11.385 6.167 18zm3.854 8.25l11.578-5.235 5.38-11.265-11.578 5.235-5.38 11.265zM20.196 18c0-.915-.756-1.65-1.696-1.65s-1.696.735-1.696 1.65c0 .915.756 1.65 1.696 1.65s1.696-.735 1.696-1.65z" fill="#333"/></svg>