<svg xmlns:svg="http://www.w3.org/2000/svg" xmlns="http://www.w3.org/2000/svg" version="1.1" viewBox="0 0 31.7 10.3"
     height="39" width="120">
    <rect ry="5.1" rx="5.1" y="0" x="0" height="10.2" width="10.6"
          style="fill:#dbedd7;"/>
    <path d="m2.5 3.6c0-0.2 0.1-0.4 0.2-0.5 0.1-0.1 0.3-0.2 0.5-0.2h5.2c0 0.1 0.1 0.1 0.1 0.2 0 0.1 0 0.2 0 0.3 0 0.2 0 0.3-0.1 0.4-0.1 0.1-0.2 0.1-0.3 0.1H3.8V4.7h4.4c0 0.1 0.1 0.1 0.1 0.2 0 0.1 0 0.2 0 0.3 0 0.2 0 0.3-0.1 0.4-0.1 0.1-0.2 0.1-0.3 0.1H3.8v0.8h4.6c0 0.1 0.1 0.1 0.1 0.2 0 0.1 0 0.2 0 0.3 0 0.2 0 0.3-0.1 0.4-0.1 0.1-0.2 0.1-0.3 0.1H3.2c-0.2 0-0.4-0.1-0.5-0.2C2.6 7.3 2.5 7.1 2.5 6.9Z"
          style="fill:#fff;"/>
    <path d="M48.9 2.1C48.4 2.1 47.9 2.3 47.5 2.7 47.1 3.1 46.9 3.6 46.9 4.1L46.9 26.7C46.9 27.2 47.1 27.7 47.5 28.1 47.9 28.5 48.4 28.7 48.9 28.7L49.8 28.7C50.4 28.7 50.8 28.5 51.3 28.1 51.7 27.7 51.9 27.2 51.9 26.7L51.9 4.1C51.9 3.6 51.7 3.1 51.3 2.7 50.8 2.3 50.4 2.1 49.8 2.1L48.9 2.1zM65.5 9.9C62.7 9.9 60.5 10.7 58.9 12.4 57.4 14.1 56.6 16.4 56.6 19.5 56.6 22.5 57.4 24.9 58.9 26.6 60.5 28.2 62.7 29.1 65.5 29.1 68.4 29.1 70.6 28.2 72.1 26.6 73.7 24.9 74.5 22.5 74.5 19.5 74.5 16.4 73.7 14.1 72.1 12.4 70.6 10.7 68.4 9.9 65.5 9.9zM84.6 9.9C82.4 9.9 80.6 10.7 79.4 12.3 78.1 13.9 77.5 16.2 77.5 19.1 77.5 22.1 78.1 24.4 79.5 26 80.8 27.7 82.5 28.5 84.6 28.5 86.7 28.5 88.4 27.8 89.9 26.3 89.9 26.3 89.9 26.3 89.9 26.3 89.9 26.3 90 26.3 90 26.3L90 27.4C90 29.5 89.6 31 88.8 31.9 88 32.8 86.7 33.2 84.9 33.2 83.7 33.2 82.5 33.1 81.4 32.8 80.9 32.7 80.5 32.8 80.1 33 79.7 33.3 79.5 33.7 79.5 34.2 79.5 34.8 79.7 35.3 80 35.7 80.4 36.2 80.9 36.5 81.4 36.6 82.7 36.8 83.9 36.9 85 36.9 91.4 36.9 94.6 33.7 94.6 27.3L94.6 12.3C94.6 11.7 94.4 11.3 94 10.8 93.6 10.4 93.2 10.2 92.6 10.2L92.2 10.2C91.7 10.2 91.2 10.4 90.8 10.8 90.4 11.2 90.2 11.7 90.1 12.3L90.1 12.5C90.1 12.5 90.1 12.6 90.1 12.6 90.1 12.6 90.1 12.5 90 12.5 89.2 11.6 88.4 10.9 87.5 10.5 86.7 10.1 85.7 9.9 84.6 9.9zM107.3 9.9C104.4 9.9 102.2 10.7 100.6 12.4 99.1 14.1 98.3 16.4 98.3 19.5 98.3 22.5 99.1 24.9 100.6 26.6 102.2 28.2 104.4 29.1 107.3 29.1 110.1 29.1 112.3 28.2 113.9 26.6 115.5 24.9 116.3 22.5 116.3 19.5 116.3 16.4 115.5 14.1 113.9 12.4 112.3 10.7 110.1 9.9 107.3 9.9zM65.5 13.3C66.9 13.3 68 13.8 68.7 14.8 69.4 15.8 69.7 17.3 69.7 19.5 69.7 21.6 69.4 23.2 68.7 24.2 68 25.1 66.9 25.6 65.5 25.6 64.2 25.6 63.1 25.1 62.4 24.2 61.7 23.2 61.4 21.6 61.4 19.5 61.4 17.3 61.7 15.8 62.4 14.8 63.1 13.8 64.2 13.3 65.5 13.3zM107.3 13.3C108.7 13.3 109.7 13.8 110.4 14.8 111.1 15.8 111.5 17.3 111.5 19.5 111.5 21.6 111.1 23.2 110.4 24.2 109.7 25.1 108.7 25.6 107.3 25.6 105.9 25.6 104.8 25.1 104.1 24.2 103.4 23.2 103.1 21.6 103.1 19.5 103.1 17.3 103.4 15.8 104.1 14.8 104.8 13.8 105.9 13.3 107.3 13.3zM86.1 13.4C87.1 13.4 88 13.8 88.8 14.6 89.6 15.3 90 16.3 90 17.3L90 21.2C90 22.2 89.6 23.1 88.8 23.8 88 24.6 87.1 25 86.1 25 84.9 25 83.9 24.5 83.2 23.5 82.5 22.5 82.2 21.1 82.2 19.1 82.2 15.3 83.5 13.4 86.1 13.4z"
          transform="matrix(0.26416667,0,0,0.26416667,0,-0.00125)"
          style="fill:#83af7a;"/>
</svg>