<svg xmlns="http://www.w3.org/2000/svg" viewBox="0 0 31.7 10.3" height="39" width="120"><rect ry="5.1" rx="5.1" height="10.2" width="10.6" fill="#dbedd7"/><path d="M2.5 3.6c0-.2.1-.4.2-.5.1-.1.3-.2.5-.2h5.2c0 .1.1.1.1.2v.3c0 .2 0 .3-.1.4-.1.1-.2.1-.3.1H3.8v.8h4.4c0 .1.1.1.1.2v.3c0 .2 0 .3-.1.4-.1.1-.2.1-.3.1H3.8v.8h4.6c0 .1.1.1.1.2V7c0 .2 0 .3-.1.4-.1.1-.2.1-.3.1H3.2c-.2 0-.4-.1-.5-.2-.1 0-.2-.2-.2-.4z" fill="#fff"/><path d="M12.918.554a.522.522 0 00-.37.158.522.522 0 00-.159.37v5.97c0 .132.053.264.159.37a.522.522 0 00.37.158h.238c.158 0 .264-.052.396-.158a.522.522 0 00.158-.37v-5.97a.522.522 0 00-.158-.37c-.132-.106-.238-.158-.396-.158h-.238zm4.385 2.06c-.74 0-1.32.211-1.744.66-.396.45-.607 1.057-.607 1.876 0 .793.211 1.427.607 1.876.423.422 1.004.66 1.744.66.766 0 1.347-.238 1.743-.66.423-.45.634-1.083.634-1.876 0-.819-.21-1.426-.634-1.876-.396-.449-.977-.66-1.743-.66zm5.046 0c-.582 0-1.057.211-1.374.634-.344.423-.502 1.03-.502 1.796 0 .793.158 1.4.528 1.823.344.45.793.66 1.348.66.554 0 1.003-.184 1.4-.58h.026v.29c0 .555-.106.95-.317 1.189-.211.237-.555.343-1.03.343a3.52 3.52 0 01-.925-.106.504.504 0 00-.343.053.377.377 0 00-.159.317.649.649 0 00.502.634c.344.053.66.08.951.08 1.69 0 2.536-.846 2.536-2.536V3.248c0-.158-.053-.264-.158-.396a.48.48 0 00-.37-.159h-.106a.522.522 0 00-.37.159.694.694 0 00-.185.396v.079s0-.026-.026-.026c-.211-.238-.423-.423-.66-.528a1.724 1.724 0 00-.766-.159zm5.996 0c-.766 0-1.347.211-1.77.66-.396.45-.607 1.057-.607 1.876 0 .793.21 1.427.607 1.876.423.422 1.004.66 1.77.66.74 0 1.32-.238 1.744-.66.422-.45.634-1.083.634-1.876 0-.819-.212-1.426-.634-1.876-.423-.449-1.004-.66-1.744-.66zm-11.042.898c.37 0 .66.132.845.396.185.265.264.66.264 1.242 0 .555-.079.977-.264 1.242-.185.237-.475.37-.845.37-.343 0-.634-.133-.819-.37-.185-.265-.264-.687-.264-1.242 0-.581.08-.977.264-1.242.185-.264.476-.396.819-.396zm11.042 0c.37 0 .634.132.819.396.185.265.29.66.29 1.242 0 .555-.105.977-.29 1.242-.185.237-.45.37-.819.37-.37 0-.66-.133-.845-.37-.185-.265-.264-.687-.264-1.242 0-.581.079-.977.264-1.242.185-.264.475-.396.845-.396zm-5.6.027c.264 0 .502.105.713.317a.944.944 0 01.317.713v1.03a.89.89 0 01-.317.687c-.211.211-.45.317-.713.317a.895.895 0 01-.766-.396c-.185-.264-.264-.634-.264-1.163 0-1.003.343-1.505 1.03-1.505z" fill="#83af7a"/></svg>