<svg class="rs-icon rs-power-icon" xmlns="http://www.w3.org/2000/svg" x="0px" y="0px" width="16" height="16"
     style="enable-background:new 0 0 512 512" xml:space="preserve"
     viewBox="0 0 512 512" version="1.1">
          <path d="m256 256c-17.7 0-32-14.3-32-32v-160c0-17.7 14.3-32 32-32s32 14.3 32 32v160c0 17.7-14.3 32-32 32z"/>
    <path d="m379 68.8c-5-3-10.8-4.8-17-4.8-17.7 0-32 14.3-32 32 0 6.2 1.8 12 4.8 16.9 2 3.2 4.6 6.1 7.6 8.4 1.2 0.9 2.4 1.7 3.7 2.5 8.1 5.6 15.8 11.9 23 19.1 30.3 30.2 46.9 70.4 46.9 113.1s-16.6 82.9-46.9 113.1c-30.2 30.3-70.4 46.9-113.1 46.9s-82.9-16.6-113.1-46.9c-30.3-30.2-46.9-70.4-46.9-113.1s16.6-82.9 46.9-113.1c7.1-7.1 14.8-13.5 22.9-19 1.4-0.8 2.6-1.6 3.9-2.6 3-2.3 5.5-5.1 7.5-8.3 3.1-4.9 4.8-10.7 4.8-16.9 0-17.7-14.3-32-32-32-6.2 0-12 1.8-16.9 4.8l-0.1-0.1c-60.8 40-101 108.9-101 187.2 0 123.7 100.3 224 224 224s224-100.3 224-224c0-78.3-40.2-147.2-101-187.2z"/>
        </svg>